<svg width="896" height="173" viewBox="0 0 896 173" fill="none" xmlns="http://www.w3.org/2000/svg">
    <path d="M1.68337 85.5625L3.20845 170.967L80.9872 171.983L158.258 173V87.0875V0.666688H79.4621H0.666656L1.68337 85.5625ZM49.469 48.9607C53.0275 75.9037 59.1278 74.8869 63.703 46.4189C66.2448 29.1347 68.7866 26.0846 78.9538 26.0846C89.1209 26.0846 92.1711 30.1514 97.2547 49.9774L103.863 74.3786L109.455 51.5025C115.047 31.1682 117.081 28.6264 131.823 27.1013C140.973 26.0846 148.09 27.1013 148.09 29.6431C148.09 36.2517 118.606 136.907 115.047 143.007C109.964 151.141 93.1878 149.107 90.646 138.94C89.1209 134.365 86.5791 123.181 84.5457 115.047C80.4789 99.7965 80.4789 99.7965 74.8869 122.673C69.8033 141.482 66.7532 146.057 55.5693 147.074C42.8604 148.599 42.352 147.074 27.6096 87.5959L11.8505 26.0846H29.1347C44.8938 26.0846 45.9105 27.1013 49.469 48.9607Z" fill="black"/>
    <path d="M168.425 86.5792V172.492L190.284 171.475L211.635 170.967L213.16 85.5625L214.177 0.666714H191.301H168.425V86.5792ZM202.993 85.5625L201.468 145.549H188.759H176.05L174.525 85.5625L173 26.0846H188.759H204.518L202.993 85.5625Z" fill="black"/>
    <path d="M220.277 85.5624L221.802 170.967H272.638H323.474L324.999 85.5624L326.016 0.666679H272.638H219.261L220.277 85.5624ZM284.839 33.2016C302.123 42.352 310.765 60.6529 310.765 89.6293C310.765 107.422 307.715 116.064 296.023 128.773C283.822 142.499 278.23 145.04 256.879 145.04L231.969 145.549L230.444 85.5624L228.919 26.0846H249.762C261.454 26.0846 276.705 29.1347 284.839 33.2016Z" fill="black"/>
    <path d="M332.116 85.5625L333.641 170.967L378.377 171.983L422.604 173V86.5792V0.666687H376.852H331.099L332.116 85.5625ZM412.437 38.7935C412.437 50.4858 410.403 51.5025 389.56 51.5025C370.243 51.5025 366.684 53.0276 366.684 61.6696C366.684 69.8034 370.243 71.8368 384.477 71.8368C399.728 71.8368 402.269 73.3619 402.269 84.0374C402.269 94.7129 399.219 96.7463 386.002 98.2714C374.818 99.2881 368.718 102.847 367.701 108.947C366.176 116.064 369.735 117.589 389.052 117.589C411.42 117.589 412.437 118.097 412.437 132.84V148.09H376.852H341.266V87.0875V26.0846H376.852C411.42 26.0846 412.437 26.5929 412.437 38.7935Z" fill="black"/>
    <path d="M429.721 7.27533C428.704 10.8338 428.196 48.9607 428.704 92.1711L430.229 170.967L554.777 168.933C623.405 167.916 679.833 166.9 680.85 165.883C681.358 165.375 675.766 136.398 668.141 101.83C655.432 42.352 649.331 28.6264 640.181 34.2183C638.147 35.7434 634.081 31.1682 631.03 23.5428C623.913 4.73354 604.087 -2.89183 588.328 7.27533C581.72 11.8506 574.603 20.4926 572.569 26.0846C570.536 32.6932 566.469 35.7434 561.894 34.2183C551.727 30.6598 547.66 41.3353 533.934 107.422L521.733 165.883L520.208 83.0207L519.192 0.666679H475.473C444.971 0.666679 431.754 2.70011 429.721 7.27533ZM620.863 18.4592C630.014 29.6431 622.388 36.2517 600.021 36.2517C587.312 36.2517 580.195 33.7099 580.195 29.6431C580.195 12.3589 609.171 4.22518 620.863 18.4592ZM493.774 36.2517C505.974 48.4523 506.483 55.5693 496.824 69.8034C490.215 78.9538 490.215 80.9872 499.366 88.6126C505.466 94.2045 509.025 103.863 509.025 115.047C509.025 137.923 492.757 149.107 462.256 147.074L440.396 145.549L438.871 85.5624L437.346 26.0846H460.731C476.998 26.0846 486.657 29.1347 493.774 36.2517ZM570.027 51.5025C570.027 57.0944 572.569 61.6696 575.111 61.6696C578.161 61.6696 580.195 57.0944 580.195 51.5025C580.195 42.8604 583.753 41.3353 603.071 41.3353C620.863 41.3353 625.947 43.3687 624.93 48.4523C623.913 52.5192 625.947 55.5693 628.489 55.061C631.539 54.5526 633.064 50.9941 633.064 47.4356C632.556 43.8771 635.606 41.3353 640.181 42.352C646.281 43.3687 651.873 58.1111 660.007 97.2547C666.107 126.739 671.191 153.682 671.699 156.733C671.699 161.816 653.907 163.341 600.021 163.341C544.61 163.341 528.85 161.816 530.884 156.733C531.901 153.682 538.509 126.231 544.61 95.7296C552.235 58.6195 558.335 41.3353 562.91 41.3353C566.977 41.3353 570.027 45.9105 570.027 51.5025Z" fill="black"/>
    <path d="M688.983 7.27533C687.966 10.8338 687.458 48.9607 687.966 92.1711L689.492 170.967H737.786H786.08L787.605 85.5624L788.621 0.666679H740.327C705.251 0.666679 691.017 2.70011 688.983 7.27533ZM764.22 34.7267C769.304 39.3019 773.371 45.9105 773.371 49.469C773.371 58.1111 757.612 61.1613 746.936 54.5526C740.836 50.9941 736.26 50.9941 732.194 55.061C728.127 59.1278 732.702 64.2114 748.969 75.3953C784.554 99.2881 787.605 126.739 756.086 141.99C739.311 150.124 721.01 146.565 706.267 131.823L695.592 121.147L707.792 115.047C716.435 109.964 721.518 109.964 728.635 114.03C735.244 118.606 738.802 118.606 743.377 114.03C747.444 109.964 742.869 104.372 725.585 92.6795C712.876 83.529 702.201 74.3786 702.201 71.8368C702.201 69.8034 701.184 64.2114 699.659 60.6529C698.134 56.586 701.692 47.4356 707.284 39.8102C719.993 23.5428 748.969 21.001 764.22 34.7267Z" fill="black"/>
    <path d="M794.722 85.5624L796.247 170.967H844.541H892.835L894.36 85.5624L895.377 0.666679H844.541H793.705L794.722 85.5624ZM829.29 39.8102V54.0443L840.982 39.8102C849.624 28.6264 855.725 25.5762 866.4 27.1013L880.634 28.6264L860.3 57.0944L839.966 86.0708L859.791 114.03C870.975 129.79 880.126 143.515 880.126 145.04C880.126 146.565 874.026 148.09 866.4 148.09C857.25 148.09 848.608 143.007 840.982 133.856L829.798 120.131L829.29 133.856C829.29 145.549 827.257 148.09 816.581 148.09H803.872V87.0875V26.0846H816.581C827.257 26.0846 829.29 28.6264 829.29 39.8102Z" fill="black"/>
</svg>